<svg xmlns="http://www.w3.org/2000/svg" width="16" height="16" fill="none"><path d="M2.52 3.93L.79 2.21A1 1 0 0 1 2.21.79l13 13a1 1 0 0 1-1.42 1.42l-2.04-2.04c-1.06.5-2.32.83-3.75.83-5.14 0-8-4.2-8-6 0-1 .87-2.72 2.52-4.07zm1.42 1.43c-.17.13-.34.27-.5.42C2.54 6.62 2 7.64 2 8c0 .36.55 1.38 1.44 2.22a6.78 6.78 0 0 0 6.78 1.42l-1.46-1.47a2.3 2.3 0 0 1-2.93-2.93L3.94 5.36zM14 8c0 .28-.32.93-.86 1.6l1.42 1.42C15.5 9.92 16 8.75 16 8c0-1.8-2.86-6-8-6-.79 0-1.52.1-2.2.27l1.75 1.74L8 4c1.81 0 3.37.66 4.56 1.78C13.46 6.62 14 7.64 14 8z" fill="#000"></path></svg>
