<svg width="36" height="36" fill="none" xmlns="http://www.w3.org/2000/svg"><circle cx="18" cy="18" r="18" fill="#F5F5F5"/><path fill-rule="evenodd" clip-rule="evenodd" d="M18 5.33L7.58 11.67V27.3h6.2V16.32h8.44V27.3h6.2V11.67L18 5.33z" fill="#FC0"/><path fill-rule="evenodd" clip-rule="evenodd" d="M18 5.33L7.58 11.67V27.3h6.2V16.32h8.44V27.3h6.2V11.67L18 5.33z" fill="#FC0"/><path fill-rule="evenodd" clip-rule="evenodd" d="M18 5.33L7.58 11.67V27.3h6.2V16.32h8.44V27.3h6.2V11.67L18 5.33z" fill="url(#paint0_linear)" fill-opacity=".4"/><path fill-rule="evenodd" clip-rule="evenodd" d="M13.78 27.3l5.91 2.53V18.85l-5.91-2.53V27.3z" fill="#EBA704"/><path fill-rule="evenodd" clip-rule="evenodd" d="M13.78 27.3H7.86v-8.24l5.92-2.74V27.3z" fill="url(#paint1_linear)"/><defs><linearGradient id="paint0_linear" x1="18" y1="5.33" x2="18" y2="27.3" gradientUnits="userSpaceOnUse"><stop stop-color="#fff"/><stop offset="1" stop-color="#fff" stop-opacity="0"/></linearGradient><linearGradient id="paint1_linear" x1="15.51" y1="21.69" x2="9.18" y2="22.11" gradientUnits="userSpaceOnUse"><stop stop-color="#EBA704"/><stop offset="1" stop-color="#EBA704" stop-opacity="0"/></linearGradient></defs></svg>